<svg width="30" height="30" viewBox="0 0 30 30" fill="none" xmlns="http://www.w3.org/2000/svg">
<path d="M4 11V7C4 5.34315 5.34315 4 7 4H11" stroke="#A12B2F" stroke-width="2" stroke-linecap="round"/>
<path d="M4 19V23C4 24.6569 5.34315 26 7 26H11" stroke="#A12B2F" stroke-width="2" stroke-linecap="round"/>
<path d="M19 4L23 4C24.6569 4 26 5.34315 26 7L26 11" stroke="#A12B2F" stroke-width="2" stroke-linecap="round"/>
<path d="M19 26L23 26C24.6569 26 26 24.6569 26 23L26 19" stroke="#A12B2F" stroke-width="2" stroke-linecap="round"/>
<rect x="8" y="8" width="5" height="5" rx="1" stroke="#A12B2F" stroke-width="2" stroke-linecap="round"/>
<rect x="8" y="17" width="5" height="5" rx="1" stroke="#A12B2F" stroke-width="2" stroke-linecap="round"/>
<rect x="17" y="8" width="5" height="5" rx="1" stroke="#A12B2F" stroke-width="2" stroke-linecap="round"/>
<rect x="21.5" y="16.5" width="1" height="6" rx="0.5" fill="#B8BABF" stroke="#A12B2F"/>
<rect x="17" y="16" width="3" height="3" rx="1" fill="#A12B2F"/>
<rect x="17" y="20" width="3" height="3" rx="1" fill="#A12B2F"/>
</svg>